<mxfile host="app.diagrams.net" modified="2020-10-10T06:36:39.859Z" agent="5.0 (Windows NT 6.1) AppleWebKit/537.36 (KHTML, like Gecko) Chrome/85.0.4183.121 Safari/537.36" etag="0fiAi46qMrjsGoqFIDvZ" version="13.7.9" type="github">
  <diagram id="C5RBs43oDa-KdzZeNtuy" name="Page-1">
    <mxGraphModel dx="1320" dy="516" grid="1" gridSize="10" guides="1" tooltips="1" connect="1" arrows="1" fold="1" page="1" pageScale="1" pageWidth="827" pageHeight="1169" math="0" shadow="0">
      <root>
        <object label="" id="WIyWlLk6GJQsqaUBKTNV-0">
          <mxCell />
        </object>
        <mxCell id="WIyWlLk6GJQsqaUBKTNV-1" parent="WIyWlLk6GJQsqaUBKTNV-0" />
        <mxCell id="Pv05cdu9Z7BgthlSxjxa-10" style="edgeStyle=orthogonalEdgeStyle;rounded=0;orthogonalLoop=1;jettySize=auto;html=1;exitX=0.5;exitY=1;exitDx=0;exitDy=0;" edge="1" parent="WIyWlLk6GJQsqaUBKTNV-1" source="Pv05cdu9Z7BgthlSxjxa-3">
          <mxGeometry relative="1" as="geometry">
            <mxPoint x="340" y="80" as="targetPoint" />
          </mxGeometry>
        </mxCell>
        <mxCell id="Pv05cdu9Z7BgthlSxjxa-3" value="" style="rounded=1;whiteSpace=wrap;html=1;strokeColor=#000000;" vertex="1" parent="WIyWlLk6GJQsqaUBKTNV-1">
          <mxGeometry x="294" y="30" width="106" height="30" as="geometry" />
        </mxCell>
        <mxCell id="Pv05cdu9Z7BgthlSxjxa-4" value="Start" style="text;html=1;resizable=0;autosize=1;align=center;verticalAlign=middle;points=[];fillColor=none;strokeColor=none;rounded=0;" vertex="1" parent="WIyWlLk6GJQsqaUBKTNV-1">
          <mxGeometry x="320" y="35" width="40" height="20" as="geometry" />
        </mxCell>
        <mxCell id="Pv05cdu9Z7BgthlSxjxa-11" value="&lt;font face=&quot;Times New Roman&quot;&gt;It is cleanly divisble by 4&lt;/font&gt;" style="rhombus;whiteSpace=wrap;html=1;strokeColor=#000000;" vertex="1" parent="WIyWlLk6GJQsqaUBKTNV-1">
          <mxGeometry x="275" y="80" width="130" height="130" as="geometry" />
        </mxCell>
        <mxCell id="Pv05cdu9Z7BgthlSxjxa-12" value="" style="edgeStyle=orthogonalEdgeStyle;html=1;endArrow=none;elbow=vertical;startArrow=block;startFill=1;strokeColor=#545B64;rounded=0;" edge="1" parent="WIyWlLk6GJQsqaUBKTNV-1">
          <mxGeometry width="100" relative="1" as="geometry">
            <mxPoint x="180" y="240" as="sourcePoint" />
            <mxPoint x="275" y="144.5" as="targetPoint" />
            <Array as="points">
              <mxPoint x="195" y="144.5" />
              <mxPoint x="195" y="144.5" />
            </Array>
          </mxGeometry>
        </mxCell>
        <mxCell id="Pv05cdu9Z7BgthlSxjxa-16" value="" style="edgeStyle=orthogonalEdgeStyle;html=1;endArrow=block;elbow=vertical;startArrow=none;endFill=1;strokeColor=#545B64;rounded=0;" edge="1" parent="WIyWlLk6GJQsqaUBKTNV-1">
          <mxGeometry width="100" relative="1" as="geometry">
            <mxPoint x="405" y="144.5" as="sourcePoint" />
            <mxPoint x="510" y="240" as="targetPoint" />
          </mxGeometry>
        </mxCell>
        <mxCell id="Pv05cdu9Z7BgthlSxjxa-17" value="No" style="text;html=1;align=center;verticalAlign=middle;resizable=0;points=[];autosize=1;" vertex="1" parent="WIyWlLk6GJQsqaUBKTNV-1">
          <mxGeometry x="195" y="120" width="30" height="20" as="geometry" />
        </mxCell>
        <mxCell id="Pv05cdu9Z7BgthlSxjxa-18" value="Yes" style="text;html=1;align=center;verticalAlign=middle;resizable=0;points=[];autosize=1;" vertex="1" parent="WIyWlLk6GJQsqaUBKTNV-1">
          <mxGeometry x="440" y="120" width="40" height="20" as="geometry" />
        </mxCell>
        <mxCell id="Pv05cdu9Z7BgthlSxjxa-19" value="Not Leap" style="rounded=1;whiteSpace=wrap;html=1;strokeColor=#b85450;fillColor=#f8cecc;" vertex="1" parent="WIyWlLk6GJQsqaUBKTNV-1">
          <mxGeometry x="120" y="240" width="120" height="50" as="geometry" />
        </mxCell>
        <mxCell id="Pv05cdu9Z7BgthlSxjxa-21" value="&lt;font size=&quot;1&quot;&gt;It is cleanly divisble by 100&lt;/font&gt;" style="rhombus;whiteSpace=wrap;html=1;strokeColor=#000000;" vertex="1" parent="WIyWlLk6GJQsqaUBKTNV-1">
          <mxGeometry x="460" y="240" width="110" height="80" as="geometry" />
        </mxCell>
        <mxCell id="Pv05cdu9Z7BgthlSxjxa-25" value="" style="edgeStyle=orthogonalEdgeStyle;html=1;endArrow=none;elbow=vertical;startArrow=block;startFill=1;strokeColor=#545B64;rounded=0;" edge="1" parent="WIyWlLk6GJQsqaUBKTNV-1">
          <mxGeometry width="100" relative="1" as="geometry">
            <mxPoint x="365" y="375.5" as="sourcePoint" />
            <mxPoint x="460" y="280" as="targetPoint" />
            <Array as="points">
              <mxPoint x="380" y="280" />
              <mxPoint x="380" y="280" />
            </Array>
          </mxGeometry>
        </mxCell>
        <mxCell id="Pv05cdu9Z7BgthlSxjxa-26" value="" style="edgeStyle=orthogonalEdgeStyle;html=1;endArrow=block;elbow=vertical;startArrow=none;endFill=1;strokeColor=#545B64;rounded=0;" edge="1" parent="WIyWlLk6GJQsqaUBKTNV-1">
          <mxGeometry width="100" relative="1" as="geometry">
            <mxPoint x="570" y="280" as="sourcePoint" />
            <mxPoint x="675" y="375.5" as="targetPoint" />
          </mxGeometry>
        </mxCell>
        <mxCell id="Pv05cdu9Z7BgthlSxjxa-27" value="No" style="text;html=1;align=center;verticalAlign=middle;resizable=0;points=[];autosize=1;" vertex="1" parent="WIyWlLk6GJQsqaUBKTNV-1">
          <mxGeometry x="375" y="260" width="30" height="20" as="geometry" />
        </mxCell>
        <mxCell id="Pv05cdu9Z7BgthlSxjxa-28" value="Yes" style="text;html=1;align=center;verticalAlign=middle;resizable=0;points=[];autosize=1;" vertex="1" parent="WIyWlLk6GJQsqaUBKTNV-1">
          <mxGeometry x="600" y="260" width="40" height="20" as="geometry" />
        </mxCell>
        <mxCell id="Pv05cdu9Z7BgthlSxjxa-29" value="Leap" style="rounded=1;whiteSpace=wrap;html=1;strokeColor=#82b366;fillColor=#d5e8d4;" vertex="1" parent="WIyWlLk6GJQsqaUBKTNV-1">
          <mxGeometry x="310" y="380" width="120" height="50" as="geometry" />
        </mxCell>
        <mxCell id="Pv05cdu9Z7BgthlSxjxa-30" value="&lt;font face=&quot;Times New Roman&quot;&gt;It is cleanly divisble by 400&lt;/font&gt;" style="rhombus;whiteSpace=wrap;html=1;strokeColor=#000000;" vertex="1" parent="WIyWlLk6GJQsqaUBKTNV-1">
          <mxGeometry x="610" y="380" width="130" height="130" as="geometry" />
        </mxCell>
        <mxCell id="Pv05cdu9Z7BgthlSxjxa-31" value="" style="edgeStyle=orthogonalEdgeStyle;html=1;endArrow=none;elbow=vertical;startArrow=block;startFill=1;strokeColor=#545B64;rounded=0;" edge="1" parent="WIyWlLk6GJQsqaUBKTNV-1">
          <mxGeometry width="100" relative="1" as="geometry">
            <mxPoint x="515" y="535.5" as="sourcePoint" />
            <mxPoint x="610" y="440" as="targetPoint" />
            <Array as="points">
              <mxPoint x="530" y="440" />
              <mxPoint x="530" y="440" />
            </Array>
          </mxGeometry>
        </mxCell>
        <mxCell id="Pv05cdu9Z7BgthlSxjxa-32" value="" style="edgeStyle=orthogonalEdgeStyle;html=1;endArrow=block;elbow=vertical;startArrow=none;endFill=1;strokeColor=#545B64;rounded=0;" edge="1" parent="WIyWlLk6GJQsqaUBKTNV-1">
          <mxGeometry width="100" relative="1" as="geometry">
            <mxPoint x="740" y="440" as="sourcePoint" />
            <mxPoint x="845" y="535.5" as="targetPoint" />
          </mxGeometry>
        </mxCell>
        <mxCell id="Pv05cdu9Z7BgthlSxjxa-33" value="Leap" style="rounded=1;whiteSpace=wrap;html=1;strokeColor=#82b366;fillColor=#d5e8d4;" vertex="1" parent="WIyWlLk6GJQsqaUBKTNV-1">
          <mxGeometry x="790" y="535" width="120" height="50" as="geometry" />
        </mxCell>
        <mxCell id="Pv05cdu9Z7BgthlSxjxa-34" value="Not Leap" style="rounded=1;whiteSpace=wrap;html=1;strokeColor=#b85450;fillColor=#f8cecc;" vertex="1" parent="WIyWlLk6GJQsqaUBKTNV-1">
          <mxGeometry x="455" y="540" width="120" height="50" as="geometry" />
        </mxCell>
      </root>
    </mxGraphModel>
  </diagram>
</mxfile>
